<svg width="650" height="650" viewBox="0 0 650 650" fill="none" xmlns="http://www.w3.org/2000/svg">
<rect x="4" y="4" width="642" height="642" rx="166" fill="#FFA500" stroke="black" stroke-width="8"/>
<rect x="18" y="17" width="614" height="614" rx="152" fill="#15191E" stroke="black" stroke-width="6"/>
<path opacity="0.3" d="M200 204.125V302.042C200 385.375 253.125 462.458 325 486C396.875 462.458 450 385.583 450 302.042V204.125L325 157.25L200 204.125Z" fill="black"/>
<g filter="url(#filter0_f_80597_141)">
<path opacity="0.2" d="M454.506 321.421C454.506 346.327 447.12 370.674 433.283 391.383C419.446 412.091 399.779 428.232 376.769 437.763C353.759 447.294 328.439 449.788 304.012 444.929C279.584 440.07 257.146 428.076 239.535 410.465C221.924 392.854 209.93 370.416 205.071 345.988C200.212 321.561 202.706 296.241 212.237 273.231C221.768 250.221 237.909 230.554 258.617 216.717C279.326 202.88 303.673 195.494 328.579 195.494C361.977 195.494 394.007 208.761 417.623 232.377C441.239 255.993 454.506 288.023 454.506 321.421Z" fill="#82FF8E"/>
<path d="M255.122 321.421C255.197 348.948 248.836 376.111 236.547 400.742C235.961 402.019 235.124 403.165 234.086 404.113C233.048 405.06 231.83 405.789 230.505 406.257C229.18 406.725 227.774 406.922 226.371 406.836C224.969 406.751 223.598 406.384 222.339 405.758C221.081 405.133 219.961 404.261 219.046 403.194C218.131 402.127 217.44 400.888 217.013 399.549C216.586 398.21 216.433 396.799 216.561 395.4C216.69 394 217.099 392.641 217.763 391.402C228.598 369.669 234.204 345.705 234.134 321.421C234.109 307.26 237.281 293.276 243.413 280.512C249.546 267.747 258.48 256.532 269.551 247.701C270.626 246.84 271.861 246.199 273.185 245.815C274.508 245.431 275.894 245.311 277.264 245.463C278.634 245.614 279.96 246.034 281.168 246.699C282.375 247.363 283.44 248.259 284.301 249.334C285.162 250.41 285.803 251.645 286.188 252.968C286.572 254.292 286.691 255.678 286.54 257.048C286.388 258.418 285.968 259.744 285.304 260.951C284.639 262.159 283.744 263.224 282.668 264.085C274.056 270.951 267.105 279.674 262.336 289.602C257.566 299.53 255.1 310.407 255.122 321.421ZM328.579 310.927C325.796 310.927 323.127 312.033 321.159 314.001C319.191 315.969 318.085 318.638 318.085 321.421C318.083 362.305 307.702 402.52 287.915 438.297C286.565 440.732 286.238 443.604 287.006 446.281C287.773 448.957 289.572 451.219 292.008 452.569C294.443 453.919 297.315 454.246 299.991 453.478C302.668 452.711 304.93 450.912 306.279 448.476C327.786 409.582 339.07 365.866 339.073 321.421C339.073 318.638 337.967 315.969 335.999 314.001C334.031 312.033 331.362 310.927 328.579 310.927ZM328.579 268.951C314.663 268.951 301.317 274.479 291.477 284.319C281.637 294.159 276.109 307.505 276.109 321.421C276.109 324.204 277.215 326.873 279.183 328.841C281.151 330.809 283.82 331.915 286.603 331.915C289.386 331.915 292.056 330.809 294.024 328.841C295.992 326.873 297.097 324.204 297.097 321.421C297.097 313.072 300.414 305.064 306.318 299.16C312.222 293.256 320.229 289.939 328.579 289.939C336.928 289.939 344.936 293.256 350.84 299.16C356.744 305.064 360.061 313.072 360.061 321.421C360.17 363.147 350.979 404.373 333.157 442.101C332.569 443.351 332.232 444.704 332.167 446.084C332.102 447.464 332.309 448.843 332.777 450.143C333.244 451.442 333.964 452.637 334.893 453.659C335.823 454.681 336.944 455.509 338.194 456.097C339.444 456.686 340.797 457.022 342.177 457.087C343.557 457.153 344.936 456.945 346.235 456.478C347.535 456.01 348.73 455.291 349.752 454.361C350.773 453.432 351.602 452.31 352.19 451.06C371.32 410.527 381.178 366.241 381.049 321.421C381.049 307.505 375.521 294.159 365.681 284.319C355.841 274.479 342.495 268.951 328.579 268.951ZM328.579 185C292.41 185.038 257.733 199.423 232.157 224.999C206.581 250.575 192.196 285.252 192.158 321.421C192.177 334.525 189.959 347.537 185.599 359.894C184.672 362.519 184.826 365.405 186.026 367.917C187.227 370.428 189.376 372.36 192.001 373.287C194.625 374.214 197.511 374.061 200.023 372.86C202.534 371.66 204.466 369.511 205.393 366.886C210.542 352.281 213.163 336.906 213.146 321.421C213.146 290.806 225.307 261.445 246.955 239.797C268.603 218.15 297.964 205.988 328.579 205.988C359.194 205.988 388.555 218.15 410.203 239.797C431.85 261.445 444.012 290.806 444.012 321.421C444.017 345.398 441.693 369.318 437.073 392.845C436.806 394.198 436.808 395.589 437.078 396.941C437.349 398.292 437.883 399.577 438.651 400.723C439.418 401.868 440.404 402.85 441.551 403.614C442.698 404.378 443.985 404.909 445.337 405.176C446.007 405.305 446.688 405.371 447.37 405.372C449.799 405.37 452.151 404.525 454.026 402.982C455.902 401.44 457.184 399.294 457.654 396.912C462.541 372.045 465.001 346.763 465 321.421C464.958 285.253 450.572 250.578 424.997 225.003C399.422 199.428 364.747 185.042 328.579 185ZM284.504 353.126C281.783 352.584 278.958 353.143 276.647 354.679C274.336 356.216 272.728 358.605 272.174 361.324C267.916 382.281 260.292 402.41 249.599 420.93C248.207 423.341 247.831 426.206 248.551 428.894C249.272 431.583 251.032 433.875 253.442 435.267C255.853 436.659 258.718 437.035 261.407 436.315C264.096 435.594 266.388 433.835 267.78 431.424C279.597 410.944 288.014 388.683 292.703 365.509C292.979 364.157 292.985 362.765 292.722 361.411C292.459 360.057 291.932 358.768 291.171 357.618C290.409 356.468 289.429 355.479 288.285 354.708C287.141 353.937 285.856 353.4 284.504 353.126ZM328.579 226.976C324.632 226.977 320.69 227.222 316.773 227.71C314.063 228.117 311.62 229.568 309.966 231.752C308.311 233.936 307.577 236.681 307.92 239.4C308.262 242.119 309.655 244.596 311.799 246.301C313.944 248.007 316.671 248.806 319.397 248.528C329.735 247.242 340.228 248.167 350.182 251.241C360.136 254.315 369.323 259.469 377.136 266.36C384.948 273.251 391.208 281.723 395.501 291.216C399.794 300.708 402.021 311.003 402.036 321.421C402.033 335.015 401.192 348.595 399.518 362.085C399.334 363.457 399.423 364.852 399.78 366.189C400.137 367.526 400.756 368.78 401.6 369.877C402.443 370.974 403.496 371.894 404.696 372.583C405.897 373.272 407.222 373.716 408.595 373.891C409.03 373.943 409.468 373.969 409.907 373.969C412.459 373.964 414.922 373.029 416.834 371.338C418.746 369.648 419.977 367.319 420.296 364.787C422.065 350.426 422.942 335.969 422.919 321.5C422.912 296.464 412.977 272.454 395.291 254.734C377.606 237.014 353.614 227.031 328.579 226.976ZM404.568 395.206C403.233 394.861 401.843 394.783 400.478 394.975C399.112 395.167 397.798 395.627 396.61 396.327C395.422 397.028 394.384 397.955 393.555 399.057C392.726 400.159 392.123 401.414 391.779 402.749C389.863 410.213 387.647 417.703 385.22 425.049C384.332 427.681 384.524 430.557 385.753 433.048C386.983 435.539 389.149 437.441 391.779 438.336C392.856 438.703 393.986 438.889 395.124 438.887C397.322 438.886 399.465 438.194 401.249 436.908C403.033 435.623 404.368 433.81 405.067 431.725C407.69 423.96 410.038 415.984 412.084 408.048C412.436 406.713 412.521 405.322 412.334 403.954C412.147 402.586 411.692 401.269 410.995 400.077C410.298 398.885 409.373 397.843 408.272 397.009C407.172 396.176 405.917 395.567 404.581 395.22L404.568 395.206Z" fill="#82FF8E"/>
</g>
<path d="M163.333 178.632L325 118.007L486.667 178.632V302.042C486.667 404.778 417.537 500.311 325 524.174C232.462 500.311 163.333 404.778 163.333 302.042L163.333 178.632ZM328.162 490.216C401.482 465.32 455 386.688 455 302.042V207.59C455 203.421 452.414 199.69 448.511 198.227L328.511 153.227C326.247 152.378 323.753 152.378 321.489 153.227L201.489 198.227C197.586 199.69 195 203.421 195 207.59V302.042C195 386.898 248.52 465.324 321.838 490.216C323.888 490.912 326.111 490.912 328.162 490.216Z" fill="#FFA500" stroke="black" stroke-width="10"/>
<g filter="url(#filter1_f_80597_141)">
<path d="M224 586V550.6H229.4V586H224ZM231.2 586V550.6H236.6V586H231.2ZM238.4 586V550.6H240.2V586H238.4ZM245.6 586V550.6H247.4V586H245.6ZM249.2 586V550.6H251V586H249.2ZM239.18 605.38C238.14 605.38 237.22 605.12 236.42 604.6C235.58 604.08 234.92 603.3 234.44 602.26C233.96 601.18 233.72 599.84 233.72 598.24C233.72 596.56 233.98 595.18 234.5 594.1C235.02 593.06 235.68 592.3 236.48 591.82C237.28 591.38 238.14 591.16 239.06 591.16C240.06 591.16 240.92 591.4 241.64 591.88C242.36 592.36 242.9 593.02 243.26 593.86L241.94 594.52L241.76 594.58L241.7 594.46V594.28C241.7 594.12 241.6 593.9 241.4 593.62C241.08 593.18 240.72 592.86 240.32 592.66C239.92 592.46 239.5 592.36 239.06 592.36C237.86 592.36 236.92 592.88 236.24 593.92C235.6 594.92 235.28 596.34 235.28 598.18C235.28 599.3 235.44 600.32 235.76 601.24C236.12 602.12 236.58 602.8 237.14 603.28C237.74 603.76 238.4 604 239.12 604C239.68 604 240.2 603.86 240.68 603.58C241.2 603.26 241.62 602.84 241.94 602.32L243.08 603.1C242.6 603.86 242.06 604.42 241.46 604.78C240.82 605.18 240.06 605.38 239.18 605.38ZM252.828 586V550.6H258.228V586H252.828ZM260.028 586V550.6H261.828V586H260.028ZM263.628 586V550.6H269.028V586H263.628ZM270.828 586V550.6H272.628V586H270.828ZM278.028 586V550.6H279.828V586H278.028ZM267.228 605.38C265.628 605.38 264.408 604.76 263.568 603.52C262.688 602.28 262.248 600.52 262.248 598.24C262.248 596.04 262.688 594.3 263.568 593.02C264.448 591.78 265.668 591.16 267.228 591.16C268.788 591.16 270.008 591.78 270.888 593.02C271.768 594.3 272.208 596.04 272.208 598.24C272.208 600.52 271.768 602.28 270.888 603.52C270.048 604.76 268.828 605.38 267.228 605.38ZM267.228 604C268.308 604 269.128 603.52 269.688 602.56C270.288 601.56 270.588 600.12 270.588 598.24C270.588 596.48 270.288 595.08 269.688 594.04C269.088 593.04 268.268 592.54 267.228 592.54C266.188 592.54 265.368 593.04 264.768 594.04C264.168 595.08 263.868 596.48 263.868 598.24C263.868 600.12 264.148 601.56 264.708 602.56C265.308 603.52 266.148 604 267.228 604ZM281.656 586V550.6H283.456V586H281.656ZM288.856 586V550.6H294.256V586H288.856ZM296.056 586V550.6H297.856V586H296.056ZM299.656 586V550.6H301.456V586H299.656ZM303.256 586V550.6H308.656V586H303.256ZM291.016 591.22H292.636L296.236 601.9L299.596 591.22H301.156L296.476 605.2H295.756L291.016 591.22ZM310.484 586V550.6H312.284V586H310.484ZM314.084 586V550.6H319.484V586H314.084ZM321.284 586V550.6H323.084V586H321.284ZM324.884 586V550.6H330.284V586H324.884ZM335.684 586V550.6H337.484V586H335.684ZM324.824 605.38C323.024 605.38 321.564 604.78 320.444 603.58L321.284 602.2L321.344 602.02L321.524 602.08C321.524 602.12 321.544 602.2 321.584 602.32C321.584 602.4 321.624 602.5 321.704 602.62C321.744 602.7 321.824 602.78 321.944 602.86C322.784 603.58 323.824 603.94 325.064 603.94C325.864 603.94 326.544 603.72 327.104 603.28C327.664 602.8 327.944 602.24 327.944 601.6C327.944 601.16 327.844 600.78 327.644 600.46C327.484 600.18 327.184 599.9 326.744 599.62C326.304 599.34 325.624 599 324.704 598.6C323.344 598.08 322.364 597.48 321.764 596.8C321.204 596.12 320.924 595.36 320.924 594.52C320.924 593.48 321.304 592.64 322.064 592C322.824 591.36 323.844 591.04 325.124 591.04C325.884 591.04 326.604 591.2 327.284 591.52C327.924 591.84 328.504 592.26 329.024 592.78L328.004 594.16L327.884 594.04C327.884 594 327.864 593.94 327.824 593.86C327.824 593.74 327.784 593.64 327.704 593.56C327.664 593.44 327.584 593.34 327.464 593.26C327.144 592.94 326.764 592.7 326.324 592.54C325.924 592.42 325.444 592.36 324.884 592.36C324.164 592.36 323.604 592.56 323.204 592.96C322.764 593.36 322.544 593.84 322.544 594.4C322.544 594.84 322.624 595.22 322.784 595.54C322.984 595.86 323.324 596.16 323.804 596.44C324.284 596.76 325.004 597.1 325.964 597.46C327.284 598.02 328.204 598.58 328.724 599.14C329.204 599.74 329.444 600.48 329.444 601.36C329.444 602.04 329.284 602.68 328.964 603.28C328.604 603.88 328.084 604.38 327.404 604.78C326.684 605.18 325.824 605.38 324.824 605.38ZM339.312 586V550.6H341.113V586H339.312ZM342.913 586V550.6H348.313V586H342.913ZM350.113 586V550.6H351.913V586H350.113ZM357.313 586V550.6H359.113V586H357.313ZM360.913 586V550.6H366.313V586H360.913ZM349.213 591.22H353.173C354.693 591.22 355.833 591.52 356.593 592.12C357.393 592.72 357.793 593.56 357.793 594.64C357.793 595.32 357.613 595.94 357.253 596.5C356.853 597.06 356.333 597.46 355.693 597.7C356.493 597.98 357.133 598.44 357.613 599.08C358.093 599.76 358.333 600.48 358.333 601.24C358.333 602.44 357.893 603.4 357.013 604.12C356.173 604.8 354.873 605.14 353.113 605.14H349.213V591.22ZM352.933 596.98C355.133 596.98 356.233 596.24 356.233 594.76C356.233 594.12 355.973 593.6 355.453 593.2C354.973 592.76 354.213 592.54 353.173 592.54H350.713V596.98H352.933ZM353.413 603.76C355.573 603.76 356.653 602.88 356.653 601.12C356.653 599.24 355.433 598.3 352.993 598.3H350.713V603.76H353.413ZM368.141 586V550.6H373.541V586H368.141ZM375.341 586V550.6H377.141V586H375.341ZM378.941 586V550.6H384.341V586H378.941ZM386.141 586V550.6H387.941V586H386.141ZM393.341 586V550.6H395.141V586H393.341ZM382.541 605.38C380.941 605.38 379.721 604.76 378.881 603.52C378.001 602.28 377.561 600.52 377.561 598.24C377.561 596.04 378.001 594.3 378.881 593.02C379.761 591.78 380.981 591.16 382.541 591.16C384.101 591.16 385.321 591.78 386.201 593.02C387.081 594.3 387.521 596.04 387.521 598.24C387.521 600.52 387.081 602.28 386.201 603.52C385.361 604.76 384.141 605.38 382.541 605.38ZM382.541 604C383.621 604 384.441 603.52 385.001 602.56C385.601 601.56 385.901 600.12 385.901 598.24C385.901 596.48 385.601 595.08 385.001 594.04C384.401 593.04 383.581 592.54 382.541 592.54C381.501 592.54 380.681 593.04 380.081 594.04C379.481 595.08 379.181 596.48 379.181 598.24C379.181 600.12 379.461 601.56 380.021 602.56C380.621 603.52 381.461 604 382.541 604ZM396.969 586V550.6H402.369V586H396.969ZM404.169 586V550.6H409.569V586H404.169ZM411.369 586V550.6H413.169V586H411.369ZM414.969 586V550.6H416.769V586H414.969ZM422.169 586V550.6H423.969V586H422.169ZM406.689 591.22H407.949L411.369 598.06L414.849 591.22H416.049V605.14H414.549V594.64L411.549 600.28H410.949L408.129 594.7V605.14H406.689V591.22Z" fill="white"/>
</g>
<g clip-path="url(#clip0_80597_141)">
<path d="M234.333 133.24H143.667C137.655 133.24 131.89 135.479 127.639 139.464C123.388 143.449 121 148.854 121 154.49V239.49M234.333 515.74H143.667C137.655 515.74 131.89 513.501 127.639 509.516C123.388 505.531 121 500.126 121 494.49V409.49M415.667 515.74H506.333C512.345 515.74 518.11 513.501 522.361 509.516C526.612 505.531 529 500.126 529 494.49V409.49M415.667 133.24H506.333C512.345 133.24 518.11 135.479 522.361 139.464C526.612 143.449 529 148.854 529 154.49V239.49" stroke="white" stroke-opacity="0.6" stroke-width="10" stroke-linecap="round" stroke-linejoin="round"/>
</g>
<g filter="url(#filter2_d_80597_141)">
<mask id="path-10-outside-1_80597_141" maskUnits="userSpaceOnUse" x="165" y="44" width="325" height="57" fill="black">
<rect fill="white" x="165" y="44" width="325" height="57"/>
<path d="M189.318 98.333C181.822 98.333 176.273 96.248 172.673 92.0781C169.073 87.9082 167.272 81.471 167.272 72.7666C167.272 63.9255 169.141 57.3743 172.878 53.1133C176.615 48.8294 182.368 46.6875 190.139 46.6875C194.149 46.6875 197.556 47.2686 200.358 48.4307C203.161 49.5928 205.28 51.3018 206.716 53.5576C208.151 55.7907 208.846 58.5023 208.801 61.6924H203.024C203.024 58.5251 201.908 56.0869 199.675 54.3779C197.442 52.6689 194.263 51.8145 190.139 51.8145C186.083 51.8145 182.836 52.5094 180.397 53.8994C177.982 55.2894 176.216 57.4997 175.1 60.5303C173.983 63.5381 173.425 67.5599 173.425 72.5957C173.425 77.6087 173.949 81.6191 174.997 84.627C176.045 87.612 177.697 89.7995 179.953 91.1895C182.232 92.5566 185.274 93.2402 189.079 93.2402C193.545 93.2402 196.986 92.3857 199.401 90.6768C201.817 88.945 203.024 86.4954 203.024 83.3281H208.801C208.846 86.5182 208.117 89.2412 206.613 91.4971C205.132 93.7301 202.922 95.4277 199.982 96.5898C197.066 97.752 193.511 98.333 189.318 98.333ZM231.325 97.7861C227.474 97.7861 224.387 97.1823 222.062 95.9746C219.761 94.7669 218.075 92.8529 217.004 90.2324C215.956 87.5892 215.432 84.0801 215.432 79.7051C215.432 75.3301 215.956 71.8324 217.004 69.2119C218.075 66.5915 219.761 64.6774 222.062 63.4697C224.387 62.262 227.474 61.6582 231.325 61.6582C235.222 61.6582 238.332 62.262 240.656 63.4697C242.98 64.6546 244.678 66.5573 245.749 69.1777C246.82 71.7754 247.355 75.2503 247.355 79.6025C247.355 84.0003 246.82 87.5208 245.749 90.1641C244.678 92.8073 242.98 94.7441 240.656 95.9746C238.332 97.1823 235.222 97.7861 231.325 97.7861ZM231.53 93.5137C234.242 93.5137 236.338 93.0921 237.819 92.249C239.323 91.4059 240.394 90.0046 241.032 88.0449C241.67 86.0853 241.989 83.3281 241.989 79.7734C241.989 76.196 241.659 73.4274 240.998 71.4678C240.337 69.4854 239.243 68.0726 237.717 67.2295C236.213 66.3636 234.082 65.9307 231.325 65.9307C228.614 65.9307 226.506 66.3636 225.002 67.2295C223.498 68.0726 222.416 69.4967 221.755 71.502C221.117 73.4844 220.798 76.2643 220.798 79.8418C220.798 83.3737 221.128 86.1195 221.789 88.0791C222.45 90.016 223.544 91.4059 225.07 92.249C226.597 93.0921 228.75 93.5137 231.53 93.5137ZM252.141 62.4443H257.609L268.308 92.1807L278.903 62.4443H284.304L271.691 97H264.89L252.141 62.4443ZM308.503 97.9912C304.265 97.9912 300.858 97.5469 298.283 96.6582C295.731 95.7467 293.851 94.3112 292.644 92.3516C291.436 90.3691 290.832 87.7487 290.832 84.4902H296.472C296.472 86.6322 296.859 88.307 297.634 89.5146C298.409 90.6995 299.673 91.554 301.428 92.0781C303.182 92.5794 305.62 92.8301 308.742 92.8301C311.59 92.8301 313.846 92.5225 315.51 91.9072C317.173 91.292 318.369 90.3236 319.099 89.002C319.851 87.6576 320.227 85.8574 320.227 83.6016C320.227 81.5736 319.794 79.9329 318.928 78.6797C318.062 77.4264 316.592 76.4124 314.519 75.6377C312.445 74.8402 309.528 74.168 305.769 73.6211C300.619 72.8691 296.859 71.3538 294.489 69.0752C292.142 66.7738 290.969 63.5837 290.969 59.5049C290.969 55.0843 292.427 51.8145 295.344 49.6953C298.26 47.5762 302.749 46.5166 308.811 46.5166C312.684 46.5166 315.783 46.9382 318.107 47.7812C320.432 48.6016 322.129 49.9232 323.2 51.7461C324.271 53.569 324.807 55.9958 324.807 59.0264H319.372C319.372 57.1351 319.03 55.6654 318.347 54.6172C317.663 53.569 316.524 52.8285 314.929 52.3955C313.356 51.9398 311.146 51.7119 308.298 51.7119C305.541 51.7119 303.33 51.974 301.667 52.498C300.026 52.9993 298.819 53.8083 298.044 54.9248C297.292 56.0413 296.916 57.5225 296.916 59.3682C296.916 61.305 297.315 62.8545 298.112 64.0166C298.91 65.1559 300.3 66.1016 302.282 66.8535C304.265 67.5827 307.136 68.2435 310.896 68.8359C316.205 69.6562 320.078 71.2399 322.517 73.5869C324.955 75.9339 326.174 79.181 326.174 83.3281C326.174 88.3411 324.75 92.0439 321.901 94.4365C319.053 96.8063 314.587 97.9912 308.503 97.9912ZM363.361 70.6816C366.848 71.2513 369.434 72.5501 371.12 74.5781C372.806 76.6061 373.649 79.3975 373.649 82.9521C373.649 86.1878 373.057 88.8424 371.872 90.916C370.71 92.9668 368.898 94.4935 366.438 95.4961C363.977 96.4987 360.786 97 356.867 97H337.795V47.7471H354.851C359.066 47.7471 362.347 48.1344 364.694 48.9092C367.041 49.6611 368.716 50.9258 369.719 52.7031C370.721 54.4805 371.223 56.9642 371.223 60.1543C371.223 63.2077 370.607 65.5547 369.377 67.1953C368.169 68.8132 366.164 69.9753 363.361 70.6816ZM343.605 68.5283H355.979C358.348 68.5283 360.251 68.2549 361.687 67.708C363.122 67.1383 364.159 66.2383 364.797 65.0078C365.458 63.7773 365.788 62.1481 365.788 60.1201C365.788 58.2288 365.446 56.7591 364.763 55.7109C364.102 54.6628 362.985 53.9108 361.413 53.4551C359.864 52.9993 357.688 52.7715 354.885 52.7715H343.605V68.5283ZM356.833 92.0098C359.613 92.0098 361.766 91.7363 363.293 91.1895C364.82 90.6198 365.913 89.6969 366.574 88.4209C367.235 87.1221 367.565 85.3105 367.565 82.9863C367.565 80.6621 367.178 78.805 366.403 77.415C365.629 76.0023 364.398 74.9769 362.712 74.3389C361.026 73.7008 358.781 73.3818 355.979 73.3818H343.605V92.0098H356.833ZM403.933 98.2988C398.487 98.2988 394.134 97.319 390.876 95.3594C387.618 93.377 385.271 90.4831 383.835 86.6777C382.422 82.8496 381.716 78.0075 381.716 72.1514C381.716 66.4092 382.445 61.681 383.903 57.9668C385.384 54.2298 387.754 51.4157 391.013 49.5244C394.271 47.6331 398.578 46.6875 403.933 46.6875C409.287 46.6875 413.594 47.6445 416.853 49.5586C420.111 51.4499 422.469 54.264 423.928 58.001C425.386 61.7152 426.115 66.4206 426.115 72.1172C426.115 77.9961 425.409 82.8496 423.996 86.6777C422.583 90.4831 420.248 93.377 416.989 95.3594C413.731 97.319 409.379 98.2988 403.933 98.2988ZM403.933 93.2402C408.239 93.2402 411.555 92.4655 413.879 90.916C416.203 89.3438 417.798 87.0537 418.664 84.0459C419.553 81.0153 419.997 77.0277 419.997 72.083C419.997 67.2751 419.541 63.4242 418.63 60.5303C417.741 57.6136 416.135 55.4261 413.811 53.9678C411.486 52.5094 408.194 51.7803 403.933 51.7803C399.626 51.7803 396.311 52.5322 393.986 54.0361C391.662 55.5173 390.056 57.7275 389.167 60.667C388.278 63.5837 387.834 67.4801 387.834 72.3564C387.834 77.2783 388.278 81.2318 389.167 84.2168C390.056 87.179 391.662 89.4235 393.986 90.9502C396.333 92.4769 399.649 93.2402 403.933 93.2402ZM437.941 47.7471H448.059L462.072 85.1738H463.269L477.351 47.7471H487.502V97H482.17V53.0449H480.939L466.618 91.0527H458.723L444.504 53.0449H443.273V97H437.941V47.7471Z"/>
</mask>
<path d="M189.318 98.333C181.822 98.333 176.273 96.248 172.673 92.0781C169.073 87.9082 167.272 81.471 167.272 72.7666C167.272 63.9255 169.141 57.3743 172.878 53.1133C176.615 48.8294 182.368 46.6875 190.139 46.6875C194.149 46.6875 197.556 47.2686 200.358 48.4307C203.161 49.5928 205.28 51.3018 206.716 53.5576C208.151 55.7907 208.846 58.5023 208.801 61.6924H203.024C203.024 58.5251 201.908 56.0869 199.675 54.3779C197.442 52.6689 194.263 51.8145 190.139 51.8145C186.083 51.8145 182.836 52.5094 180.397 53.8994C177.982 55.2894 176.216 57.4997 175.1 60.5303C173.983 63.5381 173.425 67.5599 173.425 72.5957C173.425 77.6087 173.949 81.6191 174.997 84.627C176.045 87.612 177.697 89.7995 179.953 91.1895C182.232 92.5566 185.274 93.2402 189.079 93.2402C193.545 93.2402 196.986 92.3857 199.401 90.6768C201.817 88.945 203.024 86.4954 203.024 83.3281H208.801C208.846 86.5182 208.117 89.2412 206.613 91.4971C205.132 93.7301 202.922 95.4277 199.982 96.5898C197.066 97.752 193.511 98.333 189.318 98.333ZM231.325 97.7861C227.474 97.7861 224.387 97.1823 222.062 95.9746C219.761 94.7669 218.075 92.8529 217.004 90.2324C215.956 87.5892 215.432 84.0801 215.432 79.7051C215.432 75.3301 215.956 71.8324 217.004 69.2119C218.075 66.5915 219.761 64.6774 222.062 63.4697C224.387 62.262 227.474 61.6582 231.325 61.6582C235.222 61.6582 238.332 62.262 240.656 63.4697C242.98 64.6546 244.678 66.5573 245.749 69.1777C246.82 71.7754 247.355 75.2503 247.355 79.6025C247.355 84.0003 246.82 87.5208 245.749 90.1641C244.678 92.8073 242.98 94.7441 240.656 95.9746C238.332 97.1823 235.222 97.7861 231.325 97.7861ZM231.53 93.5137C234.242 93.5137 236.338 93.0921 237.819 92.249C239.323 91.4059 240.394 90.0046 241.032 88.0449C241.67 86.0853 241.989 83.3281 241.989 79.7734C241.989 76.196 241.659 73.4274 240.998 71.4678C240.337 69.4854 239.243 68.0726 237.717 67.2295C236.213 66.3636 234.082 65.9307 231.325 65.9307C228.614 65.9307 226.506 66.3636 225.002 67.2295C223.498 68.0726 222.416 69.4967 221.755 71.502C221.117 73.4844 220.798 76.2643 220.798 79.8418C220.798 83.3737 221.128 86.1195 221.789 88.0791C222.45 90.016 223.544 91.4059 225.07 92.249C226.597 93.0921 228.75 93.5137 231.53 93.5137ZM252.141 62.4443H257.609L268.308 92.1807L278.903 62.4443H284.304L271.691 97H264.89L252.141 62.4443ZM308.503 97.9912C304.265 97.9912 300.858 97.5469 298.283 96.6582C295.731 95.7467 293.851 94.3112 292.644 92.3516C291.436 90.3691 290.832 87.7487 290.832 84.4902H296.472C296.472 86.6322 296.859 88.307 297.634 89.5146C298.409 90.6995 299.673 91.554 301.428 92.0781C303.182 92.5794 305.62 92.8301 308.742 92.8301C311.59 92.8301 313.846 92.5225 315.51 91.9072C317.173 91.292 318.369 90.3236 319.099 89.002C319.851 87.6576 320.227 85.8574 320.227 83.6016C320.227 81.5736 319.794 79.9329 318.928 78.6797C318.062 77.4264 316.592 76.4124 314.519 75.6377C312.445 74.8402 309.528 74.168 305.769 73.6211C300.619 72.8691 296.859 71.3538 294.489 69.0752C292.142 66.7738 290.969 63.5837 290.969 59.5049C290.969 55.0843 292.427 51.8145 295.344 49.6953C298.26 47.5762 302.749 46.5166 308.811 46.5166C312.684 46.5166 315.783 46.9382 318.107 47.7812C320.432 48.6016 322.129 49.9232 323.2 51.7461C324.271 53.569 324.807 55.9958 324.807 59.0264H319.372C319.372 57.1351 319.03 55.6654 318.347 54.6172C317.663 53.569 316.524 52.8285 314.929 52.3955C313.356 51.9398 311.146 51.7119 308.298 51.7119C305.541 51.7119 303.33 51.974 301.667 52.498C300.026 52.9993 298.819 53.8083 298.044 54.9248C297.292 56.0413 296.916 57.5225 296.916 59.3682C296.916 61.305 297.315 62.8545 298.112 64.0166C298.91 65.1559 300.3 66.1016 302.282 66.8535C304.265 67.5827 307.136 68.2435 310.896 68.8359C316.205 69.6562 320.078 71.2399 322.517 73.5869C324.955 75.9339 326.174 79.181 326.174 83.3281C326.174 88.3411 324.75 92.0439 321.901 94.4365C319.053 96.8063 314.587 97.9912 308.503 97.9912ZM363.361 70.6816C366.848 71.2513 369.434 72.5501 371.12 74.5781C372.806 76.6061 373.649 79.3975 373.649 82.9521C373.649 86.1878 373.057 88.8424 371.872 90.916C370.71 92.9668 368.898 94.4935 366.438 95.4961C363.977 96.4987 360.786 97 356.867 97H337.795V47.7471H354.851C359.066 47.7471 362.347 48.1344 364.694 48.9092C367.041 49.6611 368.716 50.9258 369.719 52.7031C370.721 54.4805 371.223 56.9642 371.223 60.1543C371.223 63.2077 370.607 65.5547 369.377 67.1953C368.169 68.8132 366.164 69.9753 363.361 70.6816ZM343.605 68.5283H355.979C358.348 68.5283 360.251 68.2549 361.687 67.708C363.122 67.1383 364.159 66.2383 364.797 65.0078C365.458 63.7773 365.788 62.1481 365.788 60.1201C365.788 58.2288 365.446 56.7591 364.763 55.7109C364.102 54.6628 362.985 53.9108 361.413 53.4551C359.864 52.9993 357.688 52.7715 354.885 52.7715H343.605V68.5283ZM356.833 92.0098C359.613 92.0098 361.766 91.7363 363.293 91.1895C364.82 90.6198 365.913 89.6969 366.574 88.4209C367.235 87.1221 367.565 85.3105 367.565 82.9863C367.565 80.6621 367.178 78.805 366.403 77.415C365.629 76.0023 364.398 74.9769 362.712 74.3389C361.026 73.7008 358.781 73.3818 355.979 73.3818H343.605V92.0098H356.833ZM403.933 98.2988C398.487 98.2988 394.134 97.319 390.876 95.3594C387.618 93.377 385.271 90.4831 383.835 86.6777C382.422 82.8496 381.716 78.0075 381.716 72.1514C381.716 66.4092 382.445 61.681 383.903 57.9668C385.384 54.2298 387.754 51.4157 391.013 49.5244C394.271 47.6331 398.578 46.6875 403.933 46.6875C409.287 46.6875 413.594 47.6445 416.853 49.5586C420.111 51.4499 422.469 54.264 423.928 58.001C425.386 61.7152 426.115 66.4206 426.115 72.1172C426.115 77.9961 425.409 82.8496 423.996 86.6777C422.583 90.4831 420.248 93.377 416.989 95.3594C413.731 97.319 409.379 98.2988 403.933 98.2988ZM403.933 93.2402C408.239 93.2402 411.555 92.4655 413.879 90.916C416.203 89.3438 417.798 87.0537 418.664 84.0459C419.553 81.0153 419.997 77.0277 419.997 72.083C419.997 67.2751 419.541 63.4242 418.63 60.5303C417.741 57.6136 416.135 55.4261 413.811 53.9678C411.486 52.5094 408.194 51.7803 403.933 51.7803C399.626 51.7803 396.311 52.5322 393.986 54.0361C391.662 55.5173 390.056 57.7275 389.167 60.667C388.278 63.5837 387.834 67.4801 387.834 72.3564C387.834 77.2783 388.278 81.2318 389.167 84.2168C390.056 87.179 391.662 89.4235 393.986 90.9502C396.333 92.4769 399.649 93.2402 403.933 93.2402ZM437.941 47.7471H448.059L462.072 85.1738H463.269L477.351 47.7471H487.502V97H482.17V53.0449H480.939L466.618 91.0527H458.723L444.504 53.0449H443.273V97H437.941V47.7471Z" fill="white"/>
<path d="M172.878 53.1133L174.382 54.432L174.385 54.428L172.878 53.1133ZM206.716 53.5576L205.028 54.6314L205.033 54.6391L206.716 53.5576ZM208.801 61.6924V63.6924H210.772L210.801 61.721L208.801 61.6924ZM203.024 61.6924H201.024V63.6924H203.024V61.6924ZM199.675 54.3779L200.89 52.7897L199.675 54.3779ZM180.397 53.8994L179.407 52.1619L179.4 52.166L180.397 53.8994ZM175.1 60.5303L176.975 61.2263L176.976 61.2217L175.1 60.5303ZM174.997 84.627L173.108 85.2851L173.11 85.2896L174.997 84.627ZM179.953 91.1895L178.904 92.8922L178.914 92.8984L178.924 92.9044L179.953 91.1895ZM199.401 90.6768L200.557 92.3094L200.567 92.3022L199.401 90.6768ZM203.024 83.3281V81.3281H201.024V83.3281H203.024ZM208.801 83.3281L210.801 83.2996L210.772 81.3281H208.801V83.3281ZM206.613 91.4971L204.949 90.3877L204.947 90.3916L206.613 91.4971ZM199.982 96.5898L199.247 94.7299L199.242 94.7319L199.982 96.5898ZM189.318 96.333C182.183 96.333 177.283 94.3579 174.187 90.7711L171.159 93.3851C175.263 98.1382 181.461 100.333 189.318 100.333V96.333ZM174.187 90.7711C171.038 87.1237 169.272 81.2548 169.272 72.7666H165.272C165.272 81.6872 167.108 88.6927 171.159 93.3851L174.187 90.7711ZM169.272 72.7666C169.272 64.1514 171.102 58.1717 174.382 54.432L171.374 51.7946C167.18 56.577 165.272 63.6995 165.272 72.7666H169.272ZM174.385 54.428C177.617 50.7227 182.724 48.6875 190.139 48.6875V44.6875C182.013 44.6875 175.612 46.9361 171.371 51.7985L174.385 54.428ZM190.139 48.6875C193.966 48.6875 197.097 49.2435 199.592 50.2781L201.124 46.5832C198.014 45.2936 194.332 44.6875 190.139 44.6875V48.6875ZM199.592 50.2781C202.069 51.305 203.842 52.7673 205.028 54.6314L208.403 52.4839C206.718 49.8362 204.253 47.8805 201.124 46.5832L199.592 50.2781ZM205.033 54.6391C206.217 56.4797 206.842 58.7865 206.801 61.6638L210.801 61.721C210.851 58.2181 210.086 55.1017 208.398 52.4761L205.033 54.6391ZM208.801 59.6924H203.024V63.6924H208.801V59.6924ZM205.024 61.6924C205.024 57.9922 203.685 54.9286 200.89 52.7897L198.459 55.9662C200.131 57.2453 201.024 59.0579 201.024 61.6924H205.024ZM200.89 52.7897C198.179 50.7145 194.505 49.8145 190.139 49.8145V53.8145C194.021 53.8145 196.705 54.6233 198.459 55.9662L200.89 52.7897ZM190.139 49.8145C185.88 49.8145 182.252 50.5401 179.407 52.1619L181.388 55.6369C183.419 54.4788 186.285 53.8145 190.139 53.8145V49.8145ZM179.4 52.166C176.515 53.826 174.474 56.4423 173.223 59.8389L176.976 61.2217C177.958 58.557 179.449 56.7528 181.395 55.6329L179.4 52.166ZM173.225 59.8343C171.992 63.1547 171.425 67.442 171.425 72.5957H175.425C175.425 67.6778 175.974 63.9215 176.975 61.2263L173.225 59.8343ZM171.425 72.5957C171.425 77.7194 171.957 81.9801 173.108 85.2851L176.886 83.9688C175.941 81.2582 175.425 77.498 175.425 72.5957H171.425ZM173.11 85.2896C174.279 88.6198 176.186 91.2174 178.904 92.8922L181.002 89.4867C179.209 88.3816 177.811 86.6041 176.884 83.9643L173.11 85.2896ZM178.924 92.9044C181.62 94.5219 185.059 95.2402 189.079 95.2402V91.2402C185.488 91.2402 182.844 90.5914 180.982 89.4745L178.924 92.9044ZM189.079 95.2402C193.76 95.2402 197.671 94.351 200.557 92.3094L198.246 89.0441C196.301 90.4205 193.33 91.2402 189.079 91.2402V95.2402ZM200.567 92.3022C203.545 90.1667 205.024 87.0904 205.024 83.3281H201.024C201.024 85.9005 200.088 87.7233 198.236 89.0514L200.567 92.3022ZM203.024 85.3281H208.801V81.3281H203.024V85.3281ZM206.801 83.3567C206.842 86.2155 206.191 88.5246 204.949 90.3877L208.277 92.6065C210.043 89.9578 210.851 86.821 210.801 83.2996L206.801 83.3567ZM204.947 90.3916C203.73 92.2261 201.876 93.6905 199.247 94.7299L200.718 98.4498C203.967 97.165 206.535 95.2342 208.28 92.6025L204.947 90.3916ZM199.242 94.7319C196.626 95.7745 193.338 96.333 189.318 96.333V100.333C193.684 100.333 197.506 99.7294 200.723 98.4478L199.242 94.7319ZM222.062 95.9746L221.133 97.7456L221.14 97.7493L222.062 95.9746ZM217.004 90.2324L215.145 90.9697L215.149 90.9794L215.153 90.9891L217.004 90.2324ZM217.004 69.2119L215.153 68.4553L215.15 68.4622L215.147 68.4691L217.004 69.2119ZM222.062 63.4697L221.14 61.695L221.133 61.6988L222.062 63.4697ZM240.656 63.4697L239.734 65.2444L239.741 65.248L239.748 65.2515L240.656 63.4697ZM245.749 69.1777L243.898 69.9344L243.9 69.94L245.749 69.1777ZM245.749 90.1641L243.895 89.413L245.749 90.1641ZM240.656 95.9746L241.578 97.7493L241.585 97.7458L241.592 97.7422L240.656 95.9746ZM237.819 92.249L236.841 90.5044L236.83 90.5109L237.819 92.249ZM241.032 88.0449L239.13 87.4257L241.032 88.0449ZM240.998 71.4678L239.101 72.1002L239.103 72.1068L240.998 71.4678ZM237.717 67.2295L236.719 68.9627L236.734 68.9716L236.75 68.9803L237.717 67.2295ZM225.002 67.2295L225.98 68.9741L225.99 68.9685L226 68.9627L225.002 67.2295ZM221.755 71.502L219.855 70.876L219.851 70.8892L221.755 71.502ZM221.789 88.0791L219.894 88.7182L219.896 88.7249L221.789 88.0791ZM231.325 95.7861C227.656 95.7861 224.922 95.2064 222.985 94.1999L221.14 97.7493C223.852 99.1582 227.293 99.7861 231.325 99.7861V95.7861ZM222.992 94.2036C221.146 93.235 219.765 91.7018 218.855 89.4758L215.153 90.9891C216.385 94.0039 218.376 96.2989 221.133 97.7456L222.992 94.2036ZM218.863 89.4952C217.944 87.178 217.432 83.9493 217.432 79.7051H213.432C213.432 84.2109 213.967 88.0004 215.145 90.9697L218.863 89.4952ZM217.432 79.7051C217.432 75.4596 217.945 72.2455 218.861 69.9547L215.147 68.4691C213.967 71.4192 213.432 75.2005 213.432 79.7051H217.432ZM218.855 69.9686C219.765 67.7425 221.146 66.2093 222.992 65.2407L221.133 61.6988C218.376 63.1455 216.385 65.4404 215.153 68.4553L218.855 69.9686ZM222.985 65.2444C224.922 64.238 227.656 63.6582 231.325 63.6582V59.6582C227.293 59.6582 223.852 60.2861 221.14 61.695L222.985 65.2444ZM231.325 63.6582C235.045 63.6582 237.8 64.2394 239.734 65.2444L241.578 61.695C238.864 60.2847 235.399 59.6582 231.325 59.6582V63.6582ZM239.748 65.2515C241.607 66.1996 242.991 67.7169 243.898 69.9344L247.6 68.4211C246.365 65.3977 244.353 63.1097 241.565 61.6879L239.748 65.2515ZM243.9 69.94C244.832 72.2003 245.355 75.3835 245.355 79.6025H249.355C249.355 75.1171 248.808 71.3504 247.598 68.4154L243.9 69.94ZM245.355 79.6025C245.355 83.8677 244.832 87.1018 243.895 89.413L247.603 90.9151C248.808 87.9399 249.355 84.1329 249.355 79.6025H245.355ZM243.895 89.413C242.985 91.6596 241.592 93.216 239.72 94.207L241.592 97.7422C244.369 96.2722 246.371 93.955 247.603 90.9151L243.895 89.413ZM239.734 94.1999C237.8 95.2049 235.045 95.7861 231.325 95.7861V99.7861C235.399 99.7861 238.864 99.1596 241.578 97.7493L239.734 94.1999ZM231.53 95.5137C234.404 95.5137 236.898 95.0747 238.809 93.9872L236.83 90.5109C235.778 91.1095 234.08 91.5137 231.53 91.5137V95.5137ZM238.797 93.9936C240.823 92.8582 242.173 91.0028 242.934 88.6641L239.13 87.4257C238.616 89.0063 237.824 89.9536 236.841 90.5045L238.797 93.9936ZM242.934 88.6641C243.668 86.4106 243.989 83.4094 243.989 79.7734H239.989C239.989 83.2469 239.673 85.7599 239.13 87.4257L242.934 88.6641ZM243.989 79.7734C243.989 76.1129 243.656 73.0915 242.893 70.8287L239.103 72.1068C239.661 73.7633 239.989 76.279 239.989 79.7734H243.989ZM242.895 70.8353C242.109 68.4764 240.734 66.6111 238.684 65.4787L236.75 68.9803C237.753 69.5341 238.565 70.4943 239.101 72.1002L242.895 70.8353ZM238.715 65.4962C236.779 64.3815 234.246 63.9307 231.325 63.9307V67.9307C233.919 67.9307 235.647 68.3457 236.719 68.9627L238.715 65.4962ZM231.325 63.9307C228.443 63.9307 225.936 64.3838 224.004 65.4962L226 68.9627C227.075 68.3435 228.784 67.9307 231.325 67.9307V63.9307ZM224.024 65.4849C221.991 66.6247 220.636 68.5077 219.855 70.876L223.654 72.1279C224.196 70.4857 225.005 69.5205 225.98 68.9741L224.024 65.4849ZM219.851 70.8892C219.12 73.162 218.798 76.1829 218.798 79.8418H222.798C222.798 76.3458 223.114 73.8067 223.659 72.1147L219.851 70.8892ZM218.798 79.8418C218.798 83.4601 219.132 86.4572 219.894 88.7182L223.684 87.44C223.125 85.7817 222.798 83.2873 222.798 79.8418H218.798ZM219.896 88.7249C220.688 91.0457 222.067 92.8754 224.103 93.9998L226.037 90.4982C225.02 89.9364 224.212 88.9862 223.682 87.4333L219.896 88.7249ZM224.103 93.9998C226.052 95.0758 228.593 95.5137 231.53 95.5137V91.5137C228.908 91.5137 227.142 91.1084 226.037 90.4982L224.103 93.9998ZM252.141 62.4443V60.4443H249.271L250.264 63.1366L252.141 62.4443ZM257.609 62.4443L259.491 61.7673L259.015 60.4443H257.609V62.4443ZM268.308 92.1807L266.426 92.8577L268.317 98.1138L270.192 92.852L268.308 92.1807ZM278.903 62.4443V60.4443H277.493L277.019 61.773L278.903 62.4443ZM284.304 62.4443L286.182 63.1301L287.163 60.4443H284.304V62.4443ZM271.691 97V99H273.09L273.57 97.6857L271.691 97ZM264.89 97L263.013 97.6923L263.496 99H264.89V97ZM252.141 64.4443H257.609V60.4443H252.141V64.4443ZM255.727 63.1214L266.426 92.8577L270.19 91.5036L259.491 61.7673L255.727 63.1214ZM270.192 92.852L280.787 63.1156L277.019 61.773L266.424 91.5094L270.192 92.852ZM278.903 64.4443H284.304V60.4443H278.903V64.4443ZM282.425 61.7586L269.813 96.3143L273.57 97.6857L286.182 63.1301L282.425 61.7586ZM271.691 95H264.89V99H271.691V95ZM266.766 96.3077L254.017 61.7521L250.264 63.1366L263.013 97.6923L266.766 96.3077ZM298.283 96.6582L297.611 98.5417L297.621 98.5453L297.631 98.5488L298.283 96.6582ZM292.644 92.3516L290.936 93.3921L290.941 93.4009L292.644 92.3516ZM290.832 84.4902V82.4902H288.832V84.4902H290.832ZM296.472 84.4902H298.472V82.4902H296.472V84.4902ZM297.634 89.5146L295.95 90.5946L295.955 90.6019L295.96 90.6091L297.634 89.5146ZM301.428 92.0781L300.855 93.9945L300.867 93.9979L300.878 94.0012L301.428 92.0781ZM319.099 89.002L317.353 88.0256L317.347 88.0358L319.099 89.002ZM318.928 78.6797L320.573 77.5428L318.928 78.6797ZM314.519 75.6377L313.801 77.5044L313.81 77.5078L313.819 77.5112L314.519 75.6377ZM305.769 73.6211L305.48 75.6001L305.481 75.6003L305.769 73.6211ZM294.489 69.0752L293.089 70.5032L293.096 70.5101L293.103 70.5169L294.489 69.0752ZM318.107 47.7812L317.425 49.6614L317.434 49.6643L317.442 49.6672L318.107 47.7812ZM324.807 59.0264V61.0264H326.807V59.0264H324.807ZM319.372 59.0264H317.372V61.0264H319.372V59.0264ZM314.929 52.3955L314.372 54.3164L314.388 54.3212L314.405 54.3257L314.929 52.3955ZM301.667 52.498L302.251 54.4108L302.26 54.4082L302.268 54.4056L301.667 52.498ZM298.044 54.9248L296.401 53.7846L296.393 53.7961L296.385 53.8076L298.044 54.9248ZM298.112 64.0166L296.463 65.1483L296.469 65.1559L296.474 65.1635L298.112 64.0166ZM302.282 66.8535L301.573 68.7235L301.582 68.7271L301.592 68.7306L302.282 66.8535ZM310.896 68.8359L310.584 70.8116L310.59 70.8125L310.896 68.8359ZM322.517 73.5869L323.904 72.146L322.517 73.5869ZM321.901 94.4365L323.181 95.974L323.188 95.9679L321.901 94.4365ZM308.503 95.9912C304.377 95.9912 301.218 95.5552 298.936 94.7676L297.631 98.5488C300.499 99.5386 304.152 99.9912 308.503 99.9912V95.9912ZM298.956 94.7747C296.753 93.9879 295.275 92.8089 294.346 91.3023L290.941 93.4009C292.428 95.8135 294.709 97.5056 297.611 98.5417L298.956 94.7747ZM294.352 91.311C293.397 89.7441 292.832 87.523 292.832 84.4902H288.832C288.832 87.9744 289.475 90.9942 290.936 93.3921L294.352 91.311ZM290.832 86.4902H296.472V82.4902H290.832V86.4902ZM294.472 84.4902C294.472 86.8383 294.891 88.9427 295.95 90.5946L299.317 88.4347C298.827 87.6713 298.472 86.426 298.472 84.4902H294.472ZM295.96 90.6091C297.061 92.2935 298.783 93.3756 300.855 93.9945L302 90.1618C300.563 89.7325 299.756 89.1056 299.308 88.4201L295.96 90.6091ZM300.878 94.0012C302.894 94.5771 305.546 94.8301 308.742 94.8301V90.8301C305.695 90.8301 303.47 90.5817 301.977 90.1551L300.878 94.0012ZM308.742 94.8301C311.702 94.8301 314.225 94.515 316.204 93.783L314.816 90.0314C313.468 90.53 311.479 90.8301 308.742 90.8301V94.8301ZM316.204 93.783C318.234 93.032 319.849 91.7815 320.85 89.9681L317.347 88.0358C316.89 88.8656 316.112 89.552 314.816 90.0314L316.204 93.783ZM320.844 89.9783C321.823 88.2286 322.227 86.0513 322.227 83.6016H318.227C318.227 85.6635 317.878 87.0865 317.353 88.0256L320.844 89.9783ZM322.227 83.6016C322.227 81.2999 321.735 79.2248 320.573 77.5428L317.282 79.8166C317.852 80.6411 318.227 81.8473 318.227 83.6016H322.227ZM320.573 77.5428C319.391 75.8322 317.51 74.6202 315.219 73.7642L313.819 77.5112C315.675 78.2047 316.732 79.0206 317.282 79.8166L320.573 77.5428ZM315.237 73.771C312.96 72.8956 309.875 72.1974 306.056 71.6419L305.481 75.6003C309.181 76.1385 311.93 76.7847 313.801 77.5044L315.237 73.771ZM306.058 71.6421C301.098 70.9179 297.815 69.4986 295.875 67.6335L293.103 70.5169C295.903 73.2091 300.14 74.8204 305.48 75.6001L306.058 71.6421ZM295.89 67.6472C294.014 65.8083 292.969 63.1839 292.969 59.5049H288.969C288.969 63.9835 290.27 67.7392 293.089 70.5032L295.89 67.6472ZM292.969 59.5049C292.969 55.5619 294.239 52.9698 296.519 51.3133L294.168 48.0773C290.615 50.6591 288.969 54.6067 288.969 59.5049H292.969ZM296.519 51.3133C298.931 49.5609 302.912 48.5166 308.811 48.5166V44.5166C302.587 44.5166 297.589 45.5915 294.168 48.0773L296.519 51.3133ZM308.811 48.5166C312.568 48.5166 315.408 48.9294 317.425 49.6614L318.789 45.9011C316.159 44.9469 312.8 44.5166 308.811 44.5166V48.5166ZM317.442 49.6672C319.399 50.358 320.682 51.4088 321.476 52.7592L324.925 50.733C323.576 48.4376 321.464 46.8452 318.773 45.8953L317.442 49.6672ZM321.476 52.7592C322.305 54.1699 322.807 56.2063 322.807 59.0264H326.807C326.807 55.7852 326.238 52.9681 324.925 50.733L321.476 52.7592ZM324.807 57.0264H319.372V61.0264H324.807V57.0264ZM321.372 59.0264C321.372 56.9323 321 55.0243 320.022 53.5247L316.671 55.7097C317.061 56.3065 317.372 57.3379 317.372 59.0264H321.372ZM320.022 53.5247C318.994 51.9485 317.366 50.9848 315.453 50.4653L314.405 54.3257C315.681 54.6721 316.332 55.1895 316.671 55.7097L320.022 53.5247ZM315.486 50.4746C313.647 49.9415 311.217 49.7119 308.298 49.7119V53.7119C311.075 53.7119 313.066 53.938 314.372 54.3164L315.486 50.4746ZM308.298 49.7119C305.441 49.7119 303.003 49.9802 301.066 50.5905L302.268 54.4056C303.658 53.9677 305.641 53.7119 308.298 53.7119V49.7119ZM301.083 50.5853C299.127 51.1829 297.493 52.2112 296.401 53.7846L299.687 56.065C300.145 55.4053 300.926 54.8158 302.251 54.4108L301.083 50.5853ZM296.385 53.8076C295.342 55.3561 294.916 57.2679 294.916 59.3682H298.916C298.916 57.777 299.242 56.7266 299.703 56.042L296.385 53.8076ZM294.916 59.3682C294.916 61.562 295.366 63.5495 296.463 65.1483L299.761 62.8849C299.263 62.1595 298.916 61.048 298.916 59.3682H294.916ZM296.474 65.1635C297.593 66.7625 299.399 67.899 301.573 68.7235L302.992 64.9835C301.2 64.3041 300.227 63.5494 299.751 62.8697L296.474 65.1635ZM301.592 68.7306C303.758 69.5272 306.78 70.2122 310.584 70.8116L311.207 66.8603C307.491 66.2748 304.772 65.6381 302.973 64.9765L301.592 68.7306ZM310.59 70.8125C315.713 71.604 319.116 73.0897 321.13 75.0278L323.904 72.146C321.041 69.3901 316.697 67.7085 311.201 66.8594L310.59 70.8125ZM321.13 75.0278C323.091 76.9156 324.174 79.5936 324.174 83.3281H328.174C328.174 78.7684 326.819 74.9522 323.904 72.146L321.13 75.0278ZM324.174 83.3281C324.174 87.9678 322.867 91.0132 320.615 92.9051L323.188 95.9679C326.632 93.0747 328.174 88.7145 328.174 83.3281H324.174ZM320.622 92.8991C318.301 94.8305 314.398 95.9912 308.503 95.9912V99.9912C314.776 99.9912 319.805 98.7822 323.181 95.974L320.622 92.8991ZM363.361 70.6816L362.873 68.7423L363.039 72.6555L363.361 70.6816ZM371.872 90.916L370.136 89.9237L370.132 89.93L371.872 90.916ZM366.438 95.4961L365.683 93.6439L366.438 95.4961ZM337.795 97H335.795V99H337.795V97ZM337.795 47.7471V45.7471H335.795V47.7471H337.795ZM364.694 48.9092L364.067 50.8084L364.076 50.8111L364.084 50.8138L364.694 48.9092ZM369.377 67.1953L367.777 65.9953L367.774 65.9989L369.377 67.1953ZM343.605 68.5283H341.605V70.5283H343.605V68.5283ZM361.687 67.708L362.399 69.577L362.411 69.5721L362.424 69.567L361.687 67.708ZM364.797 65.0078L363.035 64.0616L363.028 64.0743L363.021 64.0872L364.797 65.0078ZM364.763 55.7109L363.071 56.7775L363.079 56.7906L363.087 56.8035L364.763 55.7109ZM361.413 53.4551L360.849 55.3738L360.856 55.376L361.413 53.4551ZM343.605 52.7715V50.7715H341.605V52.7715H343.605ZM363.293 91.1895L363.967 93.0723L363.98 93.0679L363.992 93.0633L363.293 91.1895ZM366.574 88.4209L368.35 89.3406L368.354 89.3342L368.357 89.3278L366.574 88.4209ZM366.403 77.415L364.65 78.3767L364.656 78.3888L366.403 77.415ZM362.712 74.3389L362.004 76.2094L362.712 74.3389ZM343.605 73.3818V71.3818H341.605V73.3818H343.605ZM343.605 92.0098H341.605V94.0098H343.605V92.0098ZM363.039 72.6555C366.213 73.1741 368.296 74.3093 369.582 75.8568L372.658 73.2995C370.572 70.791 367.483 69.3285 363.684 68.7078L363.039 72.6555ZM369.582 75.8568C370.88 77.4177 371.649 79.7018 371.649 82.9521H375.649C375.649 79.0932 374.733 75.7946 372.658 73.2995L369.582 75.8568ZM371.649 82.9521C371.649 85.9584 371.097 88.2409 370.136 89.9237L373.609 91.9083C375.017 89.444 375.649 86.4172 375.649 82.9521H371.649ZM370.132 89.93C369.22 91.54 367.783 92.7882 365.683 93.6439L367.192 97.3483C370.014 96.1988 372.2 94.3936 373.612 91.902L370.132 89.93ZM365.683 93.6439C363.547 94.5141 360.64 95 356.867 95V99C360.933 99 364.406 98.4833 367.192 97.3483L365.683 93.6439ZM356.867 95H337.795V99H356.867V95ZM339.795 97V47.7471H335.795V97H339.795ZM337.795 49.7471H354.851V45.7471H337.795V49.7471ZM354.851 49.7471C358.981 49.7471 362.016 50.1313 364.067 50.8084L365.321 47.01C362.679 46.1376 359.151 45.7471 354.851 45.7471V49.7471ZM364.084 50.8138C366.056 51.4457 367.271 52.435 367.977 53.6858L371.461 51.7205C370.161 49.4166 368.026 47.8765 365.305 47.0045L364.084 50.8138ZM367.977 53.6858C368.741 55.0401 369.223 57.1322 369.223 60.1543H373.223C373.223 56.7962 372.702 53.9209 371.461 51.7205L367.977 53.6858ZM369.223 60.1543C369.223 62.9766 368.648 64.8334 367.777 65.9953L370.977 68.3953C372.566 66.276 373.223 63.4387 373.223 60.1543H369.223ZM367.774 65.9989C366.939 67.1184 365.418 68.1008 362.873 68.7423L363.85 72.621C366.91 71.8497 369.4 70.5079 370.98 68.3917L367.774 65.9989ZM343.605 70.5283H355.979V66.5283H343.605V70.5283ZM355.979 70.5283C358.474 70.5283 360.647 70.2443 362.399 69.577L360.975 65.839C359.855 66.2654 358.223 66.5283 355.979 66.5283V70.5283ZM362.424 69.567C364.253 68.8415 365.687 67.6361 366.572 65.9284L363.021 64.0872C362.631 64.8405 361.992 65.4352 360.949 65.849L362.424 69.567ZM366.559 65.9541C367.431 64.3308 367.788 62.3392 367.788 60.1201H363.788C363.788 61.957 363.485 63.2239 363.035 64.0616L366.559 65.9541ZM367.788 60.1201C367.788 58.026 367.416 56.118 366.438 54.6184L363.087 56.8035C363.477 57.4002 363.788 58.4316 363.788 60.1201H367.788ZM366.455 54.6443C365.458 53.0642 363.859 52.0816 361.97 51.5341L360.856 55.376C362.112 55.74 362.745 56.2614 363.071 56.7775L366.455 54.6443ZM361.977 51.5363C360.158 51.0013 357.76 50.7715 354.885 50.7715V54.7715C357.615 54.7715 359.569 54.9974 360.849 55.3738L361.977 51.5363ZM354.885 50.7715H343.605V54.7715H354.885V50.7715ZM341.605 52.7715V68.5283H345.605V52.7715H341.605ZM356.833 94.0098C359.703 94.0098 362.123 93.7329 363.967 93.0723L362.619 89.3066C361.409 89.7398 359.523 90.0098 356.833 90.0098V94.0098ZM363.992 93.0633C365.917 92.3451 367.43 91.1167 368.35 89.3406L364.798 87.5012C364.396 88.2772 363.722 88.8945 362.594 89.3156L363.992 93.0633ZM368.357 89.3278C369.221 87.6293 369.565 85.458 369.565 82.9863H365.565C365.565 85.1631 365.249 86.6149 364.792 87.514L368.357 89.3278ZM369.565 82.9863C369.565 80.4677 369.15 78.235 368.15 76.4413L364.656 78.3888C365.206 79.375 365.565 80.8566 365.565 82.9863H369.565ZM368.157 76.4534C367.126 74.5725 365.495 73.2536 363.42 72.4683L362.004 76.2094C363.301 76.7002 364.132 77.432 364.65 78.3767L368.157 76.4534ZM363.42 72.4683C361.418 71.7108 358.904 71.3818 355.979 71.3818V75.3818C358.659 75.3818 360.634 75.6909 362.004 76.2094L363.42 72.4683ZM355.979 71.3818H343.605V75.3818H355.979V71.3818ZM341.605 73.3818V92.0098H345.605V73.3818H341.605ZM343.605 94.0098H356.833V90.0098H343.605V94.0098ZM390.876 95.3594L389.836 97.068L389.845 97.0733L390.876 95.3594ZM383.835 86.6777L381.959 87.3702L381.961 87.3769L381.964 87.3837L383.835 86.6777ZM383.903 57.9668L382.044 57.2299L382.042 57.2358L383.903 57.9668ZM416.853 49.5586L415.84 51.2831L415.849 51.2883L416.853 49.5586ZM423.928 58.001L422.065 58.7281L422.066 58.7319L423.928 58.001ZM423.996 86.6777L425.871 87.3738L425.872 87.3702L423.996 86.6777ZM416.989 95.3594L418.02 97.0733L418.029 97.068L416.989 95.3594ZM413.879 90.916L414.988 92.5802L415 92.5726L413.879 90.916ZM418.664 84.0459L416.745 83.4831L416.742 83.4926L418.664 84.0459ZM418.63 60.5303L416.717 61.1132L416.719 61.1222L416.722 61.1311L418.63 60.5303ZM393.986 54.0361L395.061 55.7228L395.073 55.7153L393.986 54.0361ZM389.167 60.667L391.08 61.2499L391.081 61.2458L389.167 60.667ZM389.167 84.2168L387.25 84.7875L387.251 84.7915L389.167 84.2168ZM393.986 90.9502L392.888 92.6218L392.896 92.6267L393.986 90.9502ZM403.933 96.2988C398.701 96.2988 394.747 95.3539 391.907 93.6454L389.845 97.0733C393.521 99.2841 398.272 100.299 403.933 100.299V96.2988ZM391.915 93.6507C389.065 91.9163 386.995 89.3891 385.706 85.9718L381.964 87.3837C383.546 91.5771 386.17 94.8376 389.836 97.068L391.915 93.6507ZM385.711 85.9853C384.408 82.4527 383.716 77.8653 383.716 72.1514H379.716C379.716 78.1497 380.437 83.2465 381.959 87.3702L385.711 85.9853ZM383.716 72.1514C383.716 66.5586 384.429 62.1008 385.765 58.6977L382.042 57.2358C380.461 61.2612 379.716 66.2598 379.716 72.1514H383.716ZM385.763 58.7037C387.09 55.3544 389.174 52.9043 392.017 51.2542L390.009 47.7947C386.335 49.9271 383.679 53.1052 382.044 57.2299L385.763 58.7037ZM392.017 51.2542C394.868 49.5991 398.79 48.6875 403.933 48.6875V44.6875C398.366 44.6875 393.674 45.6672 390.009 47.7947L392.017 51.2542ZM403.933 48.6875C409.072 48.6875 412.99 49.6094 415.84 51.2831L417.866 47.8341C414.198 45.6797 409.503 44.6875 403.933 44.6875V48.6875ZM415.849 51.2883C418.689 52.937 420.759 55.3836 422.065 58.7281L425.791 57.2739C424.179 53.1444 421.533 49.9627 417.857 47.8288L415.849 51.2883ZM422.066 58.7319C423.403 62.1365 424.115 66.5723 424.115 72.1172H428.115C428.115 66.2688 427.369 61.2938 425.789 57.27L422.066 58.7319ZM424.115 72.1172C424.115 77.855 423.423 82.4534 422.12 85.9853L425.872 87.3702C427.394 83.2458 428.115 78.1372 428.115 72.1172H424.115ZM422.121 85.9816C420.854 89.3941 418.798 91.9178 415.95 93.6507L418.029 97.068C421.697 94.8361 424.312 91.572 425.871 87.3738L422.121 85.9816ZM415.959 93.6454C413.118 95.3539 409.164 96.2988 403.933 96.2988V100.299C409.593 100.299 414.344 99.2841 418.02 97.0733L415.959 93.6454ZM403.933 95.2402C408.436 95.2402 412.202 94.4376 414.988 92.5801L412.77 89.2519C410.907 90.4934 408.043 91.2402 403.933 91.2402V95.2402ZM415 92.5726C417.757 90.7072 419.606 88.0019 420.586 84.5992L416.742 83.4926C415.99 86.1055 414.649 87.9803 412.758 89.2594L415 92.5726ZM420.583 84.6087C421.547 81.3225 421.997 77.1235 421.997 72.083H417.997C417.997 76.9318 417.559 80.7081 416.745 83.4831L420.583 84.6087ZM421.997 72.083C421.997 67.1756 421.535 63.0971 420.538 59.9294L416.722 61.1311C417.548 63.7512 417.997 67.3745 417.997 72.083H421.997ZM420.543 59.9474C419.531 56.625 417.652 54.0169 414.874 52.2736L412.748 55.6619C414.618 56.8353 415.952 58.6022 416.717 61.1132L420.543 59.9474ZM414.874 52.2736C412.1 50.5336 408.378 49.7803 403.933 49.7803V53.7803C408.009 53.7803 410.872 54.4852 412.748 55.6619L414.874 52.2736ZM403.933 49.7803C399.438 49.7803 395.681 50.5574 392.9 52.357L395.073 55.7153C396.94 54.5071 399.814 53.7803 403.933 53.7803V49.7803ZM392.912 52.3495C390.137 54.1174 388.263 56.7469 387.253 60.0882L391.081 61.2458C391.849 58.7081 393.187 56.9171 395.061 55.7228L392.912 52.3495ZM387.254 60.0841C386.284 63.268 385.834 67.3858 385.834 72.3564H389.834C389.834 67.5745 390.273 63.8993 391.08 61.2499L387.254 60.0841ZM385.834 72.3564C385.834 77.3734 386.284 81.5422 387.25 84.7875L391.084 83.6461C390.273 80.9214 389.834 77.1833 389.834 72.3564H385.834ZM387.251 84.7915C388.259 88.1502 390.126 90.8077 392.888 92.6218L395.084 89.2786C393.198 88.0393 391.852 86.2079 391.083 83.6421L387.251 84.7915ZM392.896 92.6267C395.697 94.4487 399.452 95.2402 403.933 95.2402V91.2402C399.845 91.2402 396.97 90.505 395.077 89.2737L392.896 92.6267ZM437.941 47.7471V45.7471H435.941V47.7471H437.941ZM448.059 47.7471L449.932 47.0458L449.445 45.7471H448.059V47.7471ZM462.072 85.1738L460.199 85.8751L460.686 87.1738H462.072V85.1738ZM463.269 85.1738V87.1738H464.653L465.14 85.8781L463.269 85.1738ZM477.351 47.7471V45.7471H475.966L475.479 47.0428L477.351 47.7471ZM487.502 47.7471H489.502V45.7471H487.502V47.7471ZM487.502 97V99H489.502V97H487.502ZM482.17 97H480.17V99H482.17V97ZM482.17 53.0449H484.17V51.0449H482.17V53.0449ZM480.939 53.0449V51.0449H479.556L479.068 52.3397L480.939 53.0449ZM466.618 91.0527V93.0527H468.002L468.49 91.7579L466.618 91.0527ZM458.723 91.0527L456.849 91.7535L457.335 93.0527H458.723V91.0527ZM444.504 53.0449L446.377 52.3442L445.891 51.0449H444.504V53.0449ZM443.273 53.0449V51.0449H441.273V53.0449H443.273ZM443.273 97V99H445.273V97H443.273ZM437.941 97H435.941V99H437.941V97ZM437.941 49.7471H448.059V45.7471H437.941V49.7471ZM446.186 48.4484L460.199 85.8751L463.945 84.4725L449.932 47.0458L446.186 48.4484ZM462.072 87.1738H463.269V83.1738H462.072V87.1738ZM465.14 85.8781L479.222 48.4514L475.479 47.0428L461.397 84.4695L465.14 85.8781ZM477.351 49.7471H487.502V45.7471H477.351V49.7471ZM485.502 47.7471V97H489.502V47.7471H485.502ZM487.502 95H482.17V99H487.502V95ZM484.17 97V53.0449H480.17V97H484.17ZM482.17 51.0449H480.939V55.0449H482.17V51.0449ZM479.068 52.3397L464.747 90.3475L468.49 91.7579L482.811 53.7501L479.068 52.3397ZM466.618 89.0527H458.723V93.0527H466.618V89.0527ZM460.596 90.352L446.377 52.3442L442.631 53.7457L456.849 91.7535L460.596 90.352ZM444.504 51.0449H443.273V55.0449H444.504V51.0449ZM441.273 53.0449V97H445.273V53.0449H441.273ZM443.273 95H437.941V99H443.273V95ZM439.941 97V47.7471H435.941V97H439.941Z" fill="white" mask="url(#path-10-outside-1_80597_141)"/>
</g>
<defs>
<filter id="filter0_f_80597_141" x="182" y="182" width="286" height="278.099" filterUnits="userSpaceOnUse" color-interpolation-filters="sRGB">
<feFlood flood-opacity="0" result="BackgroundImageFix"/>
<feBlend mode="normal" in="SourceGraphic" in2="BackgroundImageFix" result="shape"/>
<feGaussianBlur stdDeviation="1.5" result="effect1_foregroundBlur_80597_141"/>
</filter>
<filter id="filter1_f_80597_141" x="223" y="549.6" width="201.969" height="56.7798" filterUnits="userSpaceOnUse" color-interpolation-filters="sRGB">
<feFlood flood-opacity="0" result="BackgroundImageFix"/>
<feBlend mode="normal" in="SourceGraphic" in2="BackgroundImageFix" result="shape"/>
<feGaussianBlur stdDeviation="0.5" result="effect1_foregroundBlur_80597_141"/>
</filter>
<filter id="filter2_d_80597_141" x="163.272" y="46.5166" width="328.229" height="59.8164" filterUnits="userSpaceOnUse" color-interpolation-filters="sRGB">
<feFlood flood-opacity="0" result="BackgroundImageFix"/>
<feColorMatrix in="SourceAlpha" type="matrix" values="0 0 0 0 0 0 0 0 0 0 0 0 0 0 0 0 0 0 127 0" result="hardAlpha"/>
<feOffset dy="4"/>
<feGaussianBlur stdDeviation="2"/>
<feComposite in2="hardAlpha" operator="out"/>
<feColorMatrix type="matrix" values="0 0 0 0 0 0 0 0 0 0 0 0 0 0 0 0 0 0 0.25 0"/>
<feBlend mode="normal" in2="BackgroundImageFix" result="effect1_dropShadow_80597_141"/>
<feBlend mode="normal" in="SourceGraphic" in2="effect1_dropShadow_80597_141" result="shape"/>
</filter>
<clipPath id="clip0_80597_141">
<rect width="530" height="530" fill="white" transform="translate(60 41)"/>
</clipPath>
</defs>
</svg>
